<svg width="27" height="25" viewBox="0 0 27 25" fill="none" xmlns="http://www.w3.org/2000/svg">
<path d="M4.53428 22.6407L6.60591 20.9836L6.6195 20.9728C7.05177 20.6261 7.27063 20.4521 7.51395 20.3284C7.73144 20.217 7.96389 20.1354 8.20449 20.0865C8.475 20.0307 8.75638 20.0307 9.32187 20.0307H21.1223C22.642 20.0307 23.4033 20.0307 23.9837 19.7344C24.4952 19.4738 24.9111 19.0579 25.1717 18.5463C25.4681 17.9645 25.4681 17.2033 25.4681 15.6863V5.3458C25.4681 3.82606 25.4681 3.06483 25.1717 2.4844C24.9107 1.97272 24.4943 1.55683 23.9823 1.29634C23.4019 1 22.6407 1 21.1182 1H5.34988C3.82742 1 3.06619 1 2.4844 1.29634C1.97281 1.5569 1.5569 1.97281 1.29634 2.4844C1 3.06619 1 3.82742 1 5.34988V20.9428C1 22.3919 1 23.1164 1.29634 23.4875C1.42376 23.6475 1.58565 23.7767 1.76994 23.8654C1.95423 23.9542 2.15616 24.0002 2.3607 24C2.83647 24 3.40195 23.546 4.53428 22.6407Z" stroke="#8EE2EF" stroke-width="1.91667" stroke-linecap="round" stroke-linejoin="round"/>
</svg>
