<svg width="31" height="23" viewBox="0 0 31 23" fill="none" xmlns="http://www.w3.org/2000/svg">
<path d="M27.7018 6.46875C28.151 6.71832 28.5603 7.02279 28.9297 7.38216C29.299 7.74154 29.6085 8.14084 29.8581 8.58008C30.1076 9.01931 30.3073 9.48351 30.457 9.97266C30.6068 10.4618 30.6766 10.9709 30.6667 11.5H28.75C28.75 10.9809 28.6502 10.4868 28.4505 10.0176C28.2509 9.54839 27.9763 9.1441 27.627 8.80469C27.2776 8.46528 26.8683 8.19075 26.3991 7.98112C25.9299 7.77148 25.4358 7.66667 24.9167 7.66667C24.3876 7.66667 23.8934 7.76649 23.4342 7.96615C22.975 8.1658 22.5707 8.44032 22.2214 8.78971C21.872 9.13911 21.5974 9.54839 21.3978 10.0176C21.1981 10.4868 21.0933 10.9809 21.0833 11.5C21.0833 12.4084 20.8787 13.2719 20.4694 14.0905C20.0601 14.9091 19.4861 15.5879 18.7474 16.127C19.3963 16.4564 19.9803 16.8607 20.4993 17.3398C21.0184 17.819 21.4677 18.3581 21.847 18.957C22.2263 19.556 22.5109 20.1949 22.7005 20.8737C22.8902 21.5525 22.99 22.2613 23 23H21.0833C21.0833 22.2114 20.9336 21.4677 20.6341 20.7689C20.3346 20.0701 19.9204 19.4612 19.3913 18.9421C18.8622 18.423 18.2533 18.0137 17.5645 17.7142C16.8757 17.4147 16.1319 17.26 15.3333 17.25C14.5447 17.25 13.801 17.3997 13.1022 17.6992C12.4034 17.9987 11.7945 18.413 11.2754 18.9421C10.7563 19.4711 10.347 20.0801 10.0475 20.7689C9.74805 21.4577 9.59332 22.2014 9.58333 23H7.66667C7.66667 22.2713 7.76649 21.5675 7.96615 20.8887C8.1658 20.2099 8.4503 19.571 8.81966 18.972C9.18902 18.373 9.63325 17.834 10.1523 17.3548C10.6714 16.8757 11.2604 16.4664 11.9193 16.127C11.1905 15.5879 10.6215 14.9091 10.2122 14.0905C9.80295 13.2719 9.59332 12.4084 9.58333 11.5C9.58333 10.9809 9.48351 10.4868 9.28385 10.0176C9.0842 9.54839 8.80968 9.1441 8.46029 8.80469C8.11089 8.46528 7.70161 8.19075 7.23242 7.98112C6.76324 7.77148 6.2691 7.66667 5.75 7.66667C5.22092 7.66667 4.72678 7.76649 4.26758 7.96615C3.80838 8.1658 3.40408 8.44032 3.05469 8.78971C2.7053 9.13911 2.43077 9.54839 2.23112 10.0176C2.03147 10.4868 1.92665 10.9809 1.91667 11.5H0C0 10.9809 0.0698785 10.4768 0.209635 9.98763C0.349392 9.49848 0.544054 9.03429 0.79362 8.59505C1.04319 8.15582 1.35764 7.75651 1.73698 7.39714C2.11632 7.03776 2.52561 6.7283 2.96484 6.46875C2.63542 6.11936 2.38086 5.71506 2.20117 5.25586C2.02148 4.79666 1.92665 4.32248 1.91667 3.83333C1.91667 3.31424 2.01649 2.8201 2.21615 2.35091C2.4158 1.88173 2.69032 1.47743 3.03971 1.13802C3.38911 0.798611 3.7934 0.524089 4.2526 0.314453C4.71181 0.104818 5.21094 0 5.75 0C6.2691 0 6.76324 0.0998264 7.23242 0.299479C7.70161 0.499132 8.1059 0.773655 8.44531 1.12305C8.78472 1.47244 9.05925 1.88173 9.26888 2.35091C9.47852 2.8201 9.58333 3.31424 9.58333 3.83333C9.58333 4.32248 9.49349 4.79666 9.3138 5.25586C9.13412 5.71506 8.87457 6.11936 8.53516 6.46875C9.35373 6.91797 10.0226 7.53689 10.5417 8.32552C11.0807 7.52691 11.7695 6.898 12.6081 6.4388C13.4466 5.9796 14.355 5.75 15.3333 5.75C16.3016 5.75 17.2051 5.9796 18.0436 6.4388C18.8822 6.898 19.576 7.52691 20.125 8.32552C20.6441 7.53689 21.3129 6.91797 22.1315 6.46875C21.8021 6.11936 21.5475 5.71506 21.3678 5.25586C21.1882 4.79666 21.0933 4.32248 21.0833 3.83333C21.0833 3.31424 21.1832 2.8201 21.3828 2.35091C21.5825 1.88173 21.857 1.47743 22.2064 1.13802C22.5558 0.798611 22.9601 0.524089 23.4193 0.314453C23.8785 0.104818 24.3776 0 24.9167 0C25.4358 0 25.9299 0.0998264 26.3991 0.299479C26.8683 0.499132 27.2726 0.773655 27.612 1.12305C27.9514 1.47244 28.2259 1.88173 28.4355 2.35091C28.6452 2.8201 28.75 3.31424 28.75 3.83333C28.75 4.32248 28.6602 4.79666 28.4805 5.25586C28.3008 5.71506 28.0412 6.11936 27.7018 6.46875ZM3.83333 3.83333C3.83333 4.10286 3.88325 4.35243 3.98307 4.58203C4.0829 4.81163 4.21767 5.01128 4.38737 5.18099C4.55707 5.35069 4.76172 5.49045 5.0013 5.60026C5.24089 5.71007 5.49045 5.75998 5.75 5.75C6.01953 5.75 6.2691 5.70009 6.4987 5.60026C6.7283 5.50043 6.92795 5.36567 7.09766 5.19596C7.26736 5.02626 7.40712 4.82161 7.51693 4.58203C7.62674 4.34245 7.67665 4.09288 7.66667 3.83333C7.66667 3.5638 7.61675 3.31424 7.51693 3.08464C7.4171 2.85503 7.28234 2.65538 7.11263 2.48568C6.94293 2.31597 6.73828 2.17622 6.4987 2.06641C6.25911 1.9566 6.00955 1.90668 5.75 1.91667C5.48047 1.91667 5.2309 1.96658 5.0013 2.06641C4.7717 2.16623 4.57205 2.301 4.40234 2.4707C4.23264 2.64041 4.09288 2.84505 3.98307 3.08464C3.87326 3.32422 3.82335 3.57378 3.83333 3.83333ZM15.3333 15.3333C15.8524 15.3333 16.3466 15.2335 16.8158 15.0339C17.2849 14.8342 17.6892 14.5597 18.0286 14.2103C18.3681 13.8609 18.6426 13.4566 18.8522 12.9974C19.0618 12.5382 19.1667 12.0391 19.1667 11.5C19.1667 10.9809 19.0668 10.4868 18.8672 10.0176C18.6675 9.54839 18.393 9.1441 18.0436 8.80469C17.6942 8.46528 17.2849 8.19075 16.8158 7.98112C16.3466 7.77148 15.8524 7.66667 15.3333 7.66667C14.8043 7.66667 14.3101 7.76649 13.8509 7.96615C13.3917 8.1658 12.9874 8.44032 12.638 8.78971C12.2886 9.13911 12.0141 9.54839 11.8145 10.0176C11.6148 10.4868 11.51 10.9809 11.5 11.5C11.5 12.0291 11.5998 12.5232 11.7995 12.9824C11.9991 13.4416 12.2737 13.8459 12.623 14.1953C12.9724 14.5447 13.3767 14.8192 13.8359 15.0189C14.2951 15.2185 14.7943 15.3234 15.3333 15.3333ZM23 3.83333C23 4.10286 23.0499 4.35243 23.1497 4.58203C23.2496 4.81163 23.3843 5.01128 23.554 5.18099C23.7237 5.35069 23.9284 5.49045 24.168 5.60026C24.4076 5.71007 24.6571 5.75998 24.9167 5.75C25.1862 5.75 25.4358 5.70009 25.6654 5.60026C25.895 5.50043 26.0946 5.36567 26.2643 5.19596C26.434 5.02626 26.5738 4.82161 26.6836 4.58203C26.7934 4.34245 26.8433 4.09288 26.8333 3.83333C26.8333 3.5638 26.7834 3.31424 26.6836 3.08464C26.5838 2.85503 26.449 2.65538 26.2793 2.48568C26.1096 2.31597 25.9049 2.17622 25.6654 2.06641C25.4258 1.9566 25.1762 1.90668 24.9167 1.91667C24.6471 1.91667 24.3976 1.96658 24.168 2.06641C23.9384 2.16623 23.7387 2.301 23.569 2.4707C23.3993 2.64041 23.2595 2.84505 23.1497 3.08464C23.0399 3.32422 22.99 3.57378 23 3.83333Z" fill="white"/>
</svg>
