<svg width="29" height="23" viewBox="0 0 29 23" fill="none" xmlns="http://www.w3.org/2000/svg">
<path d="M2.875 23C2.08437 23 1.40779 22.7187 0.84525 22.1562C0.282708 21.5936 0.000958333 20.9166 0 20.125V2.875C0 2.08437 0.28175 1.40779 0.84525 0.84525C1.40875 0.282708 2.08533 0.000958333 2.875 0H25.875C26.6656 0 27.3427 0.28175 27.9062 0.84525C28.4697 1.40875 28.751 2.08533 28.75 2.875V20.125C28.75 20.9156 28.4687 21.5927 27.9062 22.1562C27.3436 22.7197 26.6666 23.001 25.875 23H2.875ZM14.375 12.9375L2.875 5.75V20.125H25.875V5.75L14.375 12.9375ZM14.375 10.0625L25.875 2.875H2.875L14.375 10.0625ZM2.875 5.75V2.875V20.125V5.75Z" fill="#8EE2EF"/>
</svg>
