<svg width="23" height="23" viewBox="0 0 23 23" fill="none" xmlns="http://www.w3.org/2000/svg">
<path d="M11.5 4.92847L12.6747 6.07272L8.09109 10.6785H18.0714V12.3213H8.09109L12.6747 16.8991L11.5 18.0713L4.92859 11.4999L11.5 4.92847Z" fill="#8EE2EF"/>
<path d="M11.5 23C9.22552 23 7.00211 22.3255 5.11095 21.0619C3.21978 19.7983 1.7458 18.0022 0.87539 15.9009C0.00498276 13.7995 -0.222756 11.4872 0.220974 9.25647C0.664704 7.02568 1.75997 4.97658 3.36828 3.36828C4.97658 1.75997 7.02568 0.664704 9.25647 0.220974C11.4872 -0.222756 13.7995 0.00498276 15.9009 0.87539C18.0022 1.7458 19.7983 3.21978 21.0619 5.11095C22.3255 7.00211 23 9.22552 23 11.5C22.9965 14.5489 21.7838 17.472 19.6279 19.6279C17.472 21.7838 14.5489 22.9965 11.5 23ZM11.5 1.64286C9.55044 1.64286 7.64467 2.22097 6.02367 3.30409C4.40267 4.38721 3.13926 5.92668 2.39319 7.72784C1.64713 9.529 1.45192 11.5109 1.83226 13.423C2.2126 15.3351 3.15141 17.0915 4.52995 18.4701C5.9085 19.8486 7.66487 20.7874 9.57697 21.1677C11.4891 21.5481 13.471 21.3529 15.2722 20.6068C17.0733 19.8607 18.6128 18.5973 19.6959 16.9763C20.779 15.3553 21.3571 13.4496 21.3571 11.5C21.3541 8.88666 20.3146 6.38123 18.4667 4.53331C16.6188 2.6854 14.1133 1.64591 11.5 1.64286Z" fill="#8EE2EF"/>
</svg>
