<svg width="23" height="23" viewBox="0 0 23 23" fill="none" xmlns="http://www.w3.org/2000/svg">
<path fill-rule="evenodd" clip-rule="evenodd" d="M3.33707 3.32504C7.81328 -1.14527 15.0908 -1.09809 19.5941 3.40642C24.0998 7.91212 24.147 15.1932 19.6696 19.6694C15.1934 24.1456 7.91235 24.0996 3.40666 19.5939C2.13929 18.3317 1.18171 16.793 0.609092 15.0985C0.0364786 13.404 -0.135582 11.5998 0.106418 9.82763C0.13817 9.59504 0.261015 9.3846 0.447928 9.24259C0.634841 9.10058 0.870513 9.03863 1.1031 9.07039C1.33568 9.10214 1.54613 9.22498 1.68814 9.41189C1.83014 9.59881 1.89209 9.83448 1.86034 10.0671C1.65491 11.5689 1.80055 13.098 2.28579 14.5341C2.77103 15.9701 3.58267 17.2742 4.65693 18.3436C8.48441 22.1699 14.6449 22.1923 18.4193 18.4191C22.1926 14.6447 22.1702 8.48417 18.3439 4.65669C14.5187 0.832753 8.36174 0.807984 4.58734 4.57649L5.46961 4.58003C5.58578 4.58057 5.7007 4.60399 5.80783 4.64894C5.91495 4.6939 6.01216 4.75952 6.09392 4.84205C6.17569 4.92458 6.24039 5.0224 6.28435 5.12993C6.3283 5.23747 6.35065 5.35261 6.35011 5.46878C6.34956 5.58495 6.32614 5.69988 6.28119 5.807C6.23623 5.91412 6.17061 6.01133 6.08809 6.0931C6.00556 6.17486 5.90773 6.23956 5.8002 6.28352C5.69266 6.32748 5.57752 6.34982 5.46135 6.34928L2.45834 6.33512C2.22516 6.33388 2.00189 6.24062 1.83711 6.07562C1.67233 5.91062 1.57936 5.68723 1.57844 5.45404L1.5631 2.45339C1.56248 2.33722 1.58475 2.22206 1.62863 2.1145C1.67252 2.00693 1.73716 1.90906 1.81887 1.82648C1.90057 1.7439 1.99775 1.67822 2.10484 1.63319C2.21193 1.58816 2.32684 1.56466 2.44301 1.56404C2.55918 1.56342 2.67434 1.58569 2.7819 1.62958C2.88946 1.67346 2.98733 1.7381 3.06992 1.81981C3.1525 1.90151 3.21818 1.99869 3.26321 2.10578C3.30824 2.21287 3.33173 2.32778 3.33235 2.44395L3.33707 3.32504ZM11.4992 5.89635C11.7338 5.89635 11.9588 5.98955 12.1247 6.15545C12.2906 6.32135 12.3838 6.54636 12.3838 6.78097V11.1333L15.0743 13.8226C15.1588 13.9042 15.2262 14.0017 15.2727 14.1096C15.3191 14.2176 15.3435 14.3336 15.3446 14.4511C15.3457 14.5685 15.3234 14.685 15.2789 14.7938C15.2345 14.9025 15.1689 15.0013 15.0858 15.0844C15.0028 15.1675 14.9041 15.2332 14.7954 15.2778C14.6867 15.3223 14.5702 15.3447 14.4528 15.3438C14.3353 15.3428 14.2192 15.3185 14.1113 15.2722C14.0033 15.2258 13.9057 15.1585 13.824 15.074L10.6158 11.8658V6.78215C10.6158 6.54754 10.709 6.32253 10.8749 6.15663C11.0408 5.99073 11.2658 5.89753 11.5004 5.89753" fill="#8EE2EF"/>
</svg>
