<svg width="23" height="23" viewBox="0 0 23 23" fill="none" xmlns="http://www.w3.org/2000/svg">
<path d="M20.7559 9.25625C20.7559 9.07208 20.7197 8.88972 20.6492 8.71957C20.5787 8.54942 20.4754 8.39482 20.3452 8.26459C20.215 8.13436 20.0604 8.03106 19.8902 7.96058C19.7201 7.89011 19.5377 7.85383 19.3535 7.85383C19.1694 7.85383 18.987 7.89011 18.8169 7.96058C18.6467 8.03106 18.4921 8.13436 18.3619 8.26459C18.2316 8.39482 18.1283 8.54942 18.0579 8.71957C17.9874 8.88972 17.9511 9.07208 17.9511 9.25625H20.7559ZM5.04888 9.25625C5.04888 8.88431 4.90113 8.5276 4.63813 8.26459C4.37512 8.00159 4.01841 7.85383 3.64647 7.85383C3.27452 7.85383 2.91781 8.00159 2.65481 8.26459C2.39181 8.5276 2.24405 8.88431 2.24405 9.25625H5.04888ZM20.6056 12.4919C20.8686 12.755 21.2254 12.9027 21.5974 12.9027C21.9694 12.9027 22.3261 12.755 22.5892 12.4919C22.8522 12.2289 23 11.8721 23 11.5001C23 11.1281 22.8522 10.7714 22.5892 10.5083L20.6056 12.4919ZM11.5 1.40268L12.4918 0.410891C12.3616 0.280625 12.2069 0.17729 12.0368 0.106788C11.8666 0.0362869 11.6842 0 11.5 0C11.3158 0 11.1334 0.0362869 10.9632 0.106788C10.7931 0.17729 10.6384 0.280625 10.5082 0.410891L11.5 1.40268ZM0.410812 10.5083C0.147774 10.7714 0 11.1281 0 11.5001C0 11.8721 0.147774 12.2289 0.410812 12.4919C0.673851 12.755 1.03061 12.9027 1.4026 12.9027C1.77459 12.9027 2.13135 12.755 2.39439 12.4919L0.410812 10.5083ZM5.89033 23H17.1097V20.1952H5.89033V23ZM20.7559 19.3537V9.25625H17.9511V19.3537H20.7559ZM5.04888 19.3537V9.25625H2.24405V19.3537H5.04888ZM22.5892 10.5083L12.4918 0.410891L10.5082 2.39448L20.6056 12.4919L22.5892 10.5083ZM10.5082 0.410891L0.410812 10.5083L2.39439 12.4919L12.4918 2.39448L10.5082 0.410891ZM17.1097 23C18.0767 23 19.0042 22.6158 19.688 21.932C20.3718 21.2482 20.7559 20.3208 20.7559 19.3537H17.9511C17.9511 19.5769 17.8625 19.7909 17.7047 19.9487C17.5469 20.1065 17.3328 20.1952 17.1097 20.1952V23ZM5.89033 20.1952C5.66717 20.1952 5.45314 20.1065 5.29534 19.9487C5.13754 19.7909 5.04888 19.5769 5.04888 19.3537H2.24405C2.24405 20.3208 2.62821 21.2482 3.31202 21.932C3.99583 22.6158 4.92328 23 5.89033 23V20.1952Z" fill="#8EE2EF"/>
</svg>
