<svg width="15" height="15" viewBox="0 0 15 15" fill="none" xmlns="http://www.w3.org/2000/svg">
<g clip-path="url(#clip0_138_302)">
<path d="M2.71289 0.615234C1.77539 0.615234 0.836719 1.31836 0.836719 2.72461L2.71289 6.47461L4.58789 2.72461C4.58789 1.31836 3.65039 0.615234 2.71289 0.615234ZM10.9834 1.75781C10.7812 1.76631 10.585 1.80469 10.4209 1.83984L10.5322 2.35547C10.6963 2.31885 10.8662 2.2957 11.0098 2.28516L10.9834 1.75781ZM2.71289 1.78711C3.23145 1.78711 3.65039 2.20693 3.65039 2.72461C3.65039 3.24316 3.23145 3.66211 2.71289 3.66211C2.19521 3.66211 1.77539 3.24316 1.77539 2.72461C1.77539 2.20693 2.19521 1.78711 2.71289 1.78711ZM11.5664 1.79297L11.4785 2.31152C11.6221 2.3417 11.7656 2.37949 11.8916 2.45508L12.1465 1.99219C11.9678 1.89697 11.7686 1.81143 11.5664 1.79297ZM9.88184 1.98926C9.70312 2.05898 9.52441 2.12139 9.37207 2.18262L9.58008 2.66602C9.74121 2.59746 9.91113 2.5377 10.0547 2.4873L9.88184 1.98926ZM12.627 2.38184L12.2256 2.72461C12.3311 2.84531 12.4131 2.99414 12.4775 3.11426L12.9492 2.87695C12.8496 2.68506 12.7617 2.53975 12.627 2.38184ZM8.88281 2.4082C8.7041 2.49932 8.55762 2.58047 8.39941 2.66016L8.65723 3.12305C8.80957 3.03516 8.97656 2.9502 9.11133 2.88281L8.88281 2.4082ZM7.93652 2.93262C7.78125 3.02344 7.62891 3.11426 7.47949 3.21387L7.7666 3.65332C7.91016 3.55957 8.05957 3.47168 8.20606 3.38379L7.93652 2.93262ZM13.1309 3.45703C12.958 3.48633 12.7822 3.50684 12.6094 3.52734C12.6211 3.67383 12.6123 3.83203 12.583 3.95508L13.0957 4.0752C13.125 3.86426 13.1514 3.64746 13.1309 3.45703ZM7.03418 3.50684C6.8877 3.60645 6.74414 3.70898 6.59766 3.80859L6.90234 4.23926C7.04297 4.13672 7.18652 4.04004 7.33008 3.94043L7.03418 3.50684ZM6.16699 4.125C6.02051 4.23047 5.86816 4.34766 5.74219 4.44434L6.06152 4.86328C6.22266 4.74609 6.33398 4.6582 6.48047 4.5498L6.16699 4.125ZM12.4072 4.35938C12.3193 4.49414 12.2168 4.62891 12.1143 4.73145L12.498 5.09766C12.624 4.94824 12.7588 4.7959 12.8525 4.64355L12.4072 4.35938ZM5.32324 4.77246C5.17969 4.88379 5.03613 4.99805 4.91016 5.10352L5.24414 5.51074C5.38184 5.39648 5.52246 5.2793 5.65137 5.18555L5.32324 4.77246ZM11.751 5.06836C11.6162 5.17676 11.4756 5.28223 11.3467 5.37012L11.6484 5.80371C11.8037 5.69824 11.9561 5.58398 12.0879 5.47852L11.751 5.06836ZM4.50293 5.44629C4.36523 5.55762 4.2334 5.6748 4.09863 5.78906L4.44141 6.19043C4.57324 6.07617 4.70508 5.96191 4.83984 5.85059L4.50293 5.44629ZM10.916 5.65137C10.7666 5.73926 10.6113 5.83008 10.4707 5.90625L10.7227 6.37207C10.8809 6.27539 11.0596 6.19043 11.1914 6.10254L10.916 5.65137ZM3.69727 6.1377C3.56543 6.25488 3.43652 6.37207 3.30469 6.49219L3.65918 6.88477C3.78809 6.76758 3.91992 6.65039 4.04883 6.5332L3.69727 6.1377ZM10.0107 6.14941C9.85547 6.22559 9.7002 6.30469 9.54492 6.38086L9.77051 6.85547C9.95215 6.76758 10.0869 6.69434 10.251 6.61816L10.0107 6.14941ZM9.07324 6.60059C8.91211 6.67383 8.75684 6.74414 8.59277 6.81152L8.80664 7.29492C8.96777 7.22461 9.12891 7.15137 9.29004 7.07812L9.07324 6.60059ZM2.91797 6.85547C2.76855 6.9873 2.66455 7.08984 2.52832 7.22168L2.90039 7.60254C3.03809 7.4707 3.14941 7.35645 3.27832 7.24512L2.91797 6.85547ZM8.1123 7.02539C7.95117 7.09277 7.79004 7.16309 7.62891 7.23047L7.83398 7.71973C7.99805 7.65234 8.15918 7.58203 8.32031 7.51172L8.1123 7.02539ZM7.14258 7.43555C6.98145 7.50586 6.82031 7.57617 6.65625 7.64062L6.86133 8.12988C7.02246 8.0625 7.18652 7.99219 7.34766 7.9248L7.14258 7.43555ZM12.5566 7.64648C11.6191 7.64648 10.6816 8.34961 10.6816 9.75586L12.5566 13.5059L14.4316 9.75586C14.4316 8.34961 13.4941 7.64648 12.5566 7.64648ZM6.16992 7.8457C6.00293 7.92187 5.82715 7.99219 5.68359 8.05371L5.8916 8.54004C6.06445 8.4668 6.22852 8.39648 6.375 8.33203L6.16992 7.8457ZM5.19727 8.26172C5.03906 8.33496 4.85449 8.41699 4.71387 8.48145L4.93066 8.96191C5.10352 8.88574 5.25586 8.80957 5.4082 8.74512L5.19727 8.26172ZM4.23047 8.70117C4.06641 8.78027 3.89648 8.8623 3.75 8.93555L3.9873 9.40723C4.14551 9.3252 4.30957 9.24902 4.45313 9.17871L4.23047 8.70117ZM12.5566 8.81836C13.0752 8.81836 13.4941 9.2373 13.4941 9.75586C13.4941 10.2744 13.0752 10.6934 12.5566 10.6934C12.0381 10.6934 11.6191 10.2744 11.6191 9.75586C11.6191 9.2373 12.0381 8.81836 12.5566 8.81836ZM3.27539 9.17871C3.12012 9.26367 2.96484 9.35156 2.80664 9.44238L3.07031 9.89941C3.21973 9.81152 3.37207 9.72949 3.52441 9.64746L3.27539 9.17871ZM2.34668 9.72656C2.18232 9.82031 2.02354 9.94629 1.88672 10.0371L2.20605 10.459C2.35166 10.3535 2.5084 10.2451 2.63379 10.1689L2.34668 9.72656ZM1.4707 10.3887C1.33008 10.5176 1.1915 10.667 1.08398 10.793L1.48535 11.1357C1.59814 10.998 1.69629 10.8955 1.82812 10.7783L1.4707 10.3887ZM7.85156 10.4268L7.89844 10.9512C8.05078 10.9248 8.20313 10.9424 8.35547 10.9658L8.44629 10.4473C8.25293 10.418 8.04785 10.3975 7.85156 10.4268ZM6.76172 10.7197L6.96094 11.209C7.11328 11.1416 7.27148 11.0889 7.43262 11.0391C7.37695 10.8721 7.33594 10.7021 7.29199 10.5322C7.10742 10.585 6.92285 10.6553 6.76172 10.7197ZM9.03223 10.6934L8.7334 11.127C8.85645 11.2178 8.97656 11.3145 9.07324 11.4346L9.47168 11.0889C9.32227 10.9365 9.20801 10.793 9.03223 10.6934ZM6.26367 10.957C6.10254 11.0391 5.94727 11.1328 5.79199 11.2236L6.05859 11.6777C6.21094 11.5957 6.36035 11.499 6.50977 11.4199L6.26367 10.957ZM0.762012 11.2793C0.673535 11.4697 0.601758 11.6748 0.568359 11.8564L1.08691 11.9473C1.11855 11.7803 1.16396 11.6602 1.23047 11.5166C1.06963 11.4463 0.916113 11.3613 0.762012 11.2793ZM5.33496 11.5078C5.18555 11.6045 5.03906 11.7012 4.89258 11.8008L5.18555 12.2402C5.33203 12.1436 5.47559 12.0439 5.62207 11.9473L5.33496 11.5078ZM9.80859 11.543L9.36621 11.8301C9.45996 11.9707 9.55078 12.1172 9.63574 12.2666L10.0928 12.0029C9.99023 11.8389 9.91699 11.6924 9.80859 11.543ZM4.45606 12.0996C4.30957 12.1963 4.16309 12.29 4.01953 12.3926L4.3125 12.832C4.45312 12.7295 4.60254 12.6328 4.75195 12.5332L4.45606 12.0996ZM1.09277 12.3779C0.923145 12.4131 0.752051 12.4424 0.581543 12.4746C0.612305 12.6797 0.694629 12.8789 0.769043 13.0371L1.24512 12.8086C1.18154 12.6621 1.12119 12.5098 1.09277 12.3779ZM10.3535 12.46L9.89648 12.7236C9.9873 12.8818 10.0928 13.0518 10.1777 13.1865L10.6201 12.9023C10.5205 12.7471 10.4355 12.6006 10.3535 12.46ZM3.58594 12.6797C3.43945 12.7705 3.2959 12.8584 3.14355 12.9434L3.4043 13.4033C3.55957 13.3125 3.71484 13.2217 3.86426 13.125L3.58594 12.6797ZM1.49707 13.1572L1.13672 13.5439C1.29961 13.6992 1.50059 13.8018 1.71973 13.8486L1.83691 13.3359C1.70684 13.3096 1.58525 13.2451 1.49707 13.1572ZM2.69824 13.166C2.55146 13.2334 2.39912 13.2861 2.24121 13.3184L2.36133 13.834C2.54941 13.7959 2.72637 13.7256 2.90332 13.6523L2.69824 13.166ZM10.9102 13.3066L10.5029 13.6377C10.6289 13.793 10.7842 13.9424 10.9189 14.0479L11.2441 13.6318C11.1152 13.5322 11.0039 13.4121 10.9102 13.3066ZM11.6162 13.8193L11.4844 14.332C11.7158 14.3789 11.8887 14.3936 12.1055 14.3701L12.041 13.8457C11.8975 13.8691 11.7568 13.8545 11.6162 13.8193Z" fill="#B3B3B3"/>
</g>
<defs>
<clipPath id="clip0_138_302">
<rect width="15" height="15" fill="white"/>
</clipPath>
</defs>
</svg>
