<svg width="25" height="25" viewBox="0 0 25 25" fill="none" xmlns="http://www.w3.org/2000/svg">
<path d="M6.74971 5.6V4.45C6.74971 2.8239 6.74971 2.01085 7.25571 1.506C7.75941 1 8.57246 1 10.1997 1H14.7997C16.4258 1 17.2389 1 17.7437 1.506C18.2497 2.0097 18.2497 2.82275 18.2497 4.45V5.6C18.2497 7.2261 18.2497 8.03915 17.7437 8.544C17.24 9.05 16.427 9.05 14.7997 9.05H13.6497L10.1997 11.35V9.05C8.57361 9.05 7.76056 9.05 7.25571 8.544C6.74971 8.0403 6.74971 7.22725 6.74971 5.6ZM2.82821 20.251C2.10486 20.7363 0.20966 21.7253 1.36426 22.9627C1.92776 23.5676 2.55681 24 3.34571 24H7.85371C8.64261 24 9.27166 23.5676 9.83516 22.9627C10.9898 21.7253 9.09456 20.7363 8.37121 20.2521C7.55358 19.6969 6.58803 19.4001 5.59971 19.4001C4.61139 19.4001 3.64584 19.6958 2.82821 20.251ZM16.6282 20.251C15.9049 20.7363 14.0097 21.7253 15.1643 22.9627C15.7278 23.5676 16.3568 24 17.1457 24H21.6537C22.4426 24 23.0717 23.5676 23.6352 22.9627C24.7898 21.7253 22.8946 20.7363 22.1712 20.2521C21.3536 19.6969 20.388 19.4001 19.3997 19.4001C18.4114 19.4001 17.4458 19.6958 16.6282 20.251ZM7.89971 14.225C7.89971 14.835 7.65739 15.42 7.22606 15.8513C6.79472 16.2827 6.20971 16.525 5.59971 16.525C4.98971 16.525 4.4047 16.2827 3.97336 15.8513C3.54203 15.42 3.29971 14.835 3.29971 14.225C3.29971 13.615 3.54203 13.03 3.97336 12.5987C4.4047 12.1673 4.98971 11.925 5.59971 11.925C6.20971 11.925 6.79472 12.1673 7.22606 12.5987C7.65739 13.03 7.89971 13.615 7.89971 14.225ZM21.6997 14.225C21.6997 14.835 21.4574 15.42 21.0261 15.8513C20.5947 16.2827 20.0097 16.525 19.3997 16.525C18.7897 16.525 18.2047 16.2827 17.7734 15.8513C17.342 15.42 17.0997 14.835 17.0997 14.225C17.0997 13.615 17.342 13.03 17.7734 12.5987C18.2047 12.1673 18.7897 11.925 19.3997 11.925C20.0097 11.925 20.5947 12.1673 21.0261 12.5987C21.4574 13.03 21.6997 13.615 21.6997 14.225Z" stroke="#8EE2EF" stroke-width="1.4375" stroke-linecap="round" stroke-linejoin="round"/>
</svg>
