<svg width="23" height="15" viewBox="0 0 23 15" fill="none" xmlns="http://www.w3.org/2000/svg">
<path d="M22.6422 7.26635C22.6095 7.19135 21.8095 5.41731 20.0229 3.63077C18.3652 1.975 15.5172 0 11.346 0C7.17486 0 4.32678 1.975 2.66909 3.63077C0.882552 5.41731 0.082552 7.18846 0.0498597 7.26635C0.0169869 7.34019 0 7.42013 0 7.50096C0 7.5818 0.0169869 7.66173 0.0498597 7.73558C0.082552 7.80962 0.882552 9.58365 2.66909 11.3702C4.32678 13.026 7.17486 15 11.346 15C15.5172 15 18.3652 13.026 20.0229 11.3702C21.8095 9.58365 22.6095 7.8125 22.6422 7.73558C22.675 7.66173 22.692 7.5818 22.692 7.50096C22.692 7.42013 22.675 7.34019 22.6422 7.26635ZM11.346 13.8462C8.32871 13.8462 5.69409 12.7481 3.51428 10.5837C2.60054 9.6755 1.8273 8.63619 1.22005 7.5C1.82714 6.364 2.6004 5.32498 3.51428 4.41731C5.69409 2.25192 8.32871 1.15385 11.346 1.15385C14.3633 1.15385 16.9979 2.25192 19.1777 4.41731C20.0916 5.32498 20.8649 6.364 21.472 7.5C20.8595 8.67404 17.7883 13.8462 11.346 13.8462ZM11.346 3.07692C10.4712 3.07692 9.61606 3.33633 8.88869 3.82235C8.16131 4.30836 7.5944 4.99915 7.25962 5.80736C6.92485 6.61557 6.83726 7.50491 7.00793 8.3629C7.17859 9.22089 7.59985 10.009 8.21843 10.6276C8.83701 11.2462 9.62512 11.6674 10.4831 11.8381C11.3411 12.0088 12.2304 11.9212 13.0387 11.5864C13.8469 11.2516 14.5377 10.6847 15.0237 9.95733C15.5097 9.22996 15.7691 8.3748 15.7691 7.5C15.7676 6.3274 15.3011 5.20326 14.4719 4.3741C13.6428 3.54494 12.5186 3.07845 11.346 3.07692ZM11.346 10.7692C10.6994 10.7692 10.0673 10.5775 9.52973 10.2183C8.9921 9.85904 8.57308 9.34845 8.32564 8.75108C8.0782 8.15371 8.01346 7.49637 8.1396 6.8622C8.26575 6.22804 8.57711 5.64551 9.03432 5.1883C9.49153 4.73109 10.0741 4.41973 10.7082 4.29359C11.3424 4.16744 11.9997 4.23218 12.5971 4.47962C13.1945 4.72707 13.7051 5.14609 14.0643 5.68371C14.4235 6.22133 14.6152 6.85341 14.6152 7.5C14.6152 8.36705 14.2708 9.1986 13.6577 9.8117C13.0446 10.4248 12.2131 10.7692 11.346 10.7692Z" fill="#B3B3B3"/>
</svg>
