<svg width="23" height="22" viewBox="0 0 23 22" fill="none" xmlns="http://www.w3.org/2000/svg">
<path d="M0 0H4.5655L5.08779 1.91667H22.4125L18.8993 12.4583H7.45583L6.97667 14.375H21.0833V16.2917H4.52333L5.71742 11.5105L3.10117 1.91667H0V0ZM7.4405 10.5417H17.5174L19.7541 3.83333H5.61104L7.4405 10.5417ZM3.83333 19.1667C3.83333 18.6583 4.03527 18.1708 4.39471 17.8114C4.75416 17.4519 5.24167 17.25 5.75 17.25C6.25833 17.25 6.74584 17.4519 7.10529 17.8114C7.46473 18.1708 7.66667 18.6583 7.66667 19.1667C7.66667 19.675 7.46473 20.1625 7.10529 20.522C6.74584 20.8814 6.25833 21.0833 5.75 21.0833C5.24167 21.0833 4.75416 20.8814 4.39471 20.522C4.03527 20.1625 3.83333 19.675 3.83333 19.1667ZM17.25 19.1667C17.25 18.6583 17.4519 18.1708 17.8114 17.8114C18.1708 17.4519 18.6583 17.25 19.1667 17.25C19.675 17.25 20.1625 17.4519 20.522 17.8114C20.8814 18.1708 21.0833 18.6583 21.0833 19.1667C21.0833 19.675 20.8814 20.1625 20.522 20.522C20.1625 20.8814 19.675 21.0833 19.1667 21.0833C18.6583 21.0833 18.1708 20.8814 17.8114 20.522C17.4519 20.1625 17.25 19.675 17.25 19.1667Z" fill="#8EE2EF"/>
</svg>
