<svg width="26" height="23" viewBox="0 0 26 23" fill="none" xmlns="http://www.w3.org/2000/svg">
<path fill-rule="evenodd" clip-rule="evenodd" d="M23 0C23.6778 0 24.3278 0.269245 24.8071 0.748505C25.2863 1.22776 25.5556 1.87778 25.5556 2.55556V20.4444C25.5556 21.1222 25.2863 21.7722 24.8071 22.2515C24.3278 22.7308 23.6778 23 23 23H2.55556C1.87778 23 1.22776 22.7308 0.748505 22.2515C0.269245 21.7722 0 21.1222 0 20.4444V2.55556C0 1.87778 0.269245 1.22776 0.748505 0.748505C1.22776 0.269245 1.87778 0 2.55556 0H23ZM23 2.55556H2.55556V20.4444H23V2.55556ZM19.1667 15.3333C19.4923 15.3337 19.8056 15.4584 20.0424 15.682C20.2792 15.9055 20.4217 16.2111 20.4408 16.5362C20.4599 16.8613 20.3541 17.1815 20.1451 17.4312C19.9361 17.681 19.6396 17.8415 19.3162 17.8799L19.1667 17.8889H6.38889C6.06321 17.8885 5.74996 17.7638 5.51314 17.5402C5.27632 17.3167 5.13381 17.0111 5.11472 16.686C5.09564 16.3609 5.20142 16.0407 5.41045 15.791C5.61948 15.5412 5.91599 15.3807 6.23939 15.3423L6.38889 15.3333H19.1667ZM10.2222 5.11111C10.9 5.11111 11.55 5.38036 12.0293 5.85962C12.5085 6.33888 12.7778 6.98889 12.7778 7.66667V10.2222C12.7778 10.9 12.5085 11.55 12.0293 12.0293C11.55 12.5085 10.9 12.7778 10.2222 12.7778H7.66667C6.98889 12.7778 6.33888 12.5085 5.85962 12.0293C5.38036 11.55 5.11111 10.9 5.11111 10.2222V7.66667C5.11111 6.98889 5.38036 6.33888 5.85962 5.85962C6.33888 5.38036 6.98889 5.11111 7.66667 5.11111H10.2222ZM19.1667 10.2222C19.5056 10.2222 19.8306 10.3568 20.0702 10.5965C20.3098 10.8361 20.4444 11.1611 20.4444 11.5C20.4444 11.8389 20.3098 12.1639 20.0702 12.4035C19.8306 12.6432 19.5056 12.7778 19.1667 12.7778H15.3333C14.9944 12.7778 14.6694 12.6432 14.4298 12.4035C14.1902 12.1639 14.0556 11.8389 14.0556 11.5C14.0556 11.1611 14.1902 10.8361 14.4298 10.5965C14.6694 10.3568 14.9944 10.2222 15.3333 10.2222H19.1667ZM10.2222 7.66667H7.66667V10.2222H10.2222V7.66667ZM19.1667 5.11111C19.4923 5.11147 19.8056 5.23618 20.0424 5.45975C20.2792 5.68332 20.4217 5.98888 20.4408 6.314C20.4599 6.63912 20.3541 6.95926 20.1451 7.20901C19.9361 7.45875 19.6396 7.61926 19.3162 7.65772L19.1667 7.66667H15.3333C15.0077 7.66631 14.6944 7.5416 14.4576 7.31803C14.2208 7.09446 14.0783 6.78889 14.0592 6.46377C14.0401 6.13865 14.1459 5.81852 14.3549 5.56877C14.5639 5.31902 14.8604 5.15852 15.1838 5.12006L15.3333 5.11111H19.1667Z" fill="#8EE2EF"/>
</svg>
