<svg width="17" height="17" viewBox="0 0 17 17" fill="none" xmlns="http://www.w3.org/2000/svg">
<path d="M15.6778 17L9.72778 11.05C9.25556 11.4278 8.7125 11.7269 8.09861 11.9472C7.48472 12.1676 6.83148 12.2778 6.13889 12.2778C4.42315 12.2778 2.97122 11.6834 1.78311 10.4947C0.595 9.30593 0.000630129 7.854 4.99706e-07 6.13889C-0.00062913 4.42378 0.593741 2.97185 1.78311 1.78311C2.97248 0.59437 4.42441 0 6.13889 0C7.85337 0 9.30561 0.59437 10.4956 1.78311C11.6856 2.97185 12.2797 4.42378 12.2778 6.13889C12.2778 6.83148 12.1676 7.48472 11.9472 8.09861C11.7269 8.7125 11.4278 9.25556 11.05 9.72778L17 15.6778L15.6778 17ZM6.13889 10.3889C7.31944 10.3889 8.32307 9.97585 9.14978 9.14978C9.97648 8.3237 10.3895 7.32007 10.3889 6.13889C10.3883 4.9577 9.97522 3.95439 9.14978 3.12894C8.32433 2.3035 7.3207 1.89015 6.13889 1.88889C4.95707 1.88763 3.95376 2.30098 3.12895 3.12894C2.30413 3.95691 1.89078 4.96022 1.88889 6.13889C1.887 7.31756 2.30035 8.32119 3.12895 9.14978C3.95754 9.97837 4.96085 10.3914 6.13889 10.3889Z" fill="#B3B3B3"/>
</svg>
