<svg width="20" height="19" viewBox="0 0 20 19" fill="none" xmlns="http://www.w3.org/2000/svg">
<path d="M19.2311 3.07752L10.1155 0.0389875C9.95953 -0.0129958 9.79094 -0.0129958 9.635 0.0389875L0.519399 3.07752C0.368142 3.12794 0.236585 3.22468 0.143365 3.35403C0.050145 3.48338 -1.18145e-05 3.63878 2.08743e-09 3.79822V11.3946C2.08743e-09 11.596 0.0800326 11.7892 0.222491 11.9317C0.36495 12.0742 0.558166 12.1542 0.759634 12.1542C0.961101 12.1542 1.15432 12.0742 1.29678 11.9317C1.43923 11.7892 1.51927 11.596 1.51927 11.3946V4.85222L4.70878 5.91475C3.86137 7.28381 3.59189 8.9332 3.95953 10.5008C4.32716 12.0683 5.30185 13.4259 6.66958 14.2755C4.96041 14.9458 3.48292 16.1584 2.40234 17.8163C2.34614 17.8998 2.30711 17.9937 2.2875 18.0924C2.2679 18.1912 2.26812 18.2928 2.28815 18.3915C2.30818 18.4902 2.34762 18.5839 2.40418 18.6671C2.46074 18.7504 2.53328 18.8216 2.6176 18.8766C2.70193 18.9316 2.79634 18.9693 2.89535 18.9875C2.99437 19.0057 3.09601 19.004 3.19437 18.9826C3.29273 18.9611 3.38585 18.9204 3.46831 18.8626C3.55078 18.8049 3.62094 18.7313 3.67473 18.6462C5.10569 16.4509 7.3656 15.1927 9.87524 15.1927C12.3849 15.1927 14.6448 16.4509 16.0757 18.6462C16.1872 18.8118 16.3593 18.9269 16.5549 18.9666C16.7505 19.0063 16.9538 18.9675 17.121 18.8584C17.2882 18.7494 17.4057 18.5789 17.4482 18.3839C17.4907 18.1889 17.4548 17.985 17.3481 17.8163C16.2676 16.1584 14.7844 14.9458 13.0809 14.2755C14.4473 13.426 15.4211 12.0692 15.7886 10.5028C16.1562 8.93641 15.8876 7.28815 15.0417 5.9195L19.2311 4.52367C19.3824 4.47328 19.514 4.37655 19.6072 4.2472C19.7005 4.11785 19.7506 3.96243 19.7506 3.80297C19.7506 3.64351 19.7005 3.48809 19.6072 3.35874C19.514 3.22939 19.3824 3.13266 19.2311 3.08227V3.07752ZM14.433 9.11566C14.4332 9.83623 14.2626 10.5466 13.9351 11.1884C13.6076 11.8303 13.1326 12.3853 12.5491 12.808C11.9655 13.2308 11.2901 13.5091 10.5781 13.6202C9.8662 13.7314 9.13805 13.6721 8.45344 13.4473C7.76883 13.2225 7.14727 12.8386 6.63976 12.3271C6.13225 11.8156 5.75324 11.1911 5.53384 10.5047C5.31445 9.81836 5.26091 9.08977 5.37762 8.37872C5.49433 7.66767 5.77797 6.99442 6.20526 6.41421L9.635 7.55366C9.79094 7.60565 9.95953 7.60565 10.1155 7.55366L13.5452 6.41421C14.1223 7.19666 14.4334 8.14343 14.433 9.11566Z" fill="#8EE2EF"/>
</svg>
