<svg width="40" height="40" viewBox="0 0 40 40" fill="none" xmlns="http://www.w3.org/2000/svg">
<path d="M20 1C9.5063 1 1 9.5063 1 20C1 30.4937 9.5063 39 20 39C30.4937 39 39 30.4937 39 20C39 9.5063 30.4937 1 20 1Z" stroke="#8EE2EF" stroke-width="1.5" stroke-linecap="round" stroke-linejoin="round"/>
<path d="M5.31482 32.0573C5.31482 32.0573 9.54992 26.6499 19.9999 26.6499C30.4499 26.6499 34.6869 32.0573 34.6869 32.0573M19.9999 19.9999C21.5117 19.9999 22.9615 19.3993 24.0304 18.3304C25.0994 17.2614 25.6999 15.8116 25.6999 14.2999C25.6999 12.7881 25.0994 11.3383 24.0304 10.2693C22.9615 9.20039 21.5117 8.59985 19.9999 8.59985C18.4882 8.59985 17.0384 9.20039 15.9694 10.2693C14.9005 11.3383 14.2999 12.7881 14.2999 14.2999C14.2999 15.8116 14.9005 17.2614 15.9694 18.3304C17.0384 19.3993 18.4882 19.9999 19.9999 19.9999Z" stroke="#8EE2EF" stroke-width="1.5" stroke-linecap="round" stroke-linejoin="round"/>
</svg>
