<svg width="22" height="23" viewBox="0 0 22 23" fill="none" xmlns="http://www.w3.org/2000/svg">
<path d="M19.1768 21.3076H15.9807C15.6788 21.3076 15.426 21.2053 15.2222 21.0008C15.0183 20.7962 14.916 20.5434 14.9153 20.2422C14.9146 19.9411 15.0169 19.6882 15.2222 19.4837C15.4274 19.2791 15.6803 19.1768 15.9807 19.1768H19.1768V8.52304H4.26152V11.7192C4.26152 12.021 4.15925 12.2742 3.95469 12.4788C3.75014 12.6834 3.49729 12.7853 3.19614 12.7846C2.895 12.7839 2.64215 12.6816 2.43759 12.4777C2.23304 12.2739 2.13076 12.021 2.13076 11.7192V4.26152C2.13076 3.67556 2.33958 3.17413 2.75721 2.75721C3.17484 2.34029 3.67627 2.13147 4.26152 2.13076H5.3269V1.06538C5.3269 0.763526 5.42918 0.510676 5.63373 0.306833C5.83829 0.102991 6.09114 0.000713927 6.39228 3.67372e-06C6.69343 -0.00070658 6.94664 0.10157 7.1519 0.306833C7.35716 0.512096 7.45908 0.764947 7.45766 1.06538V2.13076H15.9807V1.06538C15.9807 0.763526 16.083 0.510676 16.2875 0.306833C16.4921 0.102991 16.7449 0.000713927 17.0461 3.67372e-06C17.3472 -0.00070658 17.6004 0.10157 17.8057 0.306833C18.011 0.512096 18.1129 0.764947 18.1115 1.06538V2.13076H19.1768C19.7628 2.13076 20.2646 2.33958 20.6822 2.75721C21.0999 3.17484 21.3083 3.67627 21.3076 4.26152V19.1768C21.3076 19.7628 21.0991 20.2646 20.6822 20.6822C20.2653 21.0999 19.7635 21.3083 19.1768 21.3076ZM8.70949 19.1768H1.06538C0.763526 19.1768 0.510676 19.0746 0.306833 18.87C0.10299 18.6655 0.000713927 18.4126 3.67372e-06 18.1115C-0.00070658 17.8103 0.10157 17.5575 0.306833 17.3529C0.512096 17.1484 0.764947 17.0461 1.06538 17.0461H8.70949L6.7119 15.0219C6.51658 14.8265 6.41466 14.5826 6.40613 14.2899C6.39761 13.9973 6.49953 13.7441 6.7119 13.5303C6.90722 13.335 7.15581 13.2374 7.45766 13.2374C7.75952 13.2374 8.00811 13.335 8.20343 13.5303L12.0388 17.3657C12.2519 17.5788 12.3584 17.8274 12.3584 18.1115C12.3584 18.3956 12.2519 18.6442 12.0388 18.8572L8.20343 22.6926C8.00811 22.8879 7.76414 22.9902 7.47151 22.9994C7.17889 23.0087 6.92568 22.9064 6.7119 22.6926C6.51658 22.4973 6.41892 22.2487 6.41892 21.9468C6.41892 21.645 6.51658 21.3964 6.7119 21.2011L8.70949 19.1768Z" fill="#8EE2EF"/>
</svg>
