<svg width="31" height="25" viewBox="0 0 31 25" fill="none" xmlns="http://www.w3.org/2000/svg">
<path d="M6.75 6.75H12.5" stroke="#8EE2EF" stroke-width="1.4375" stroke-linecap="round" stroke-linejoin="round"/>
<path d="M28.0724 8.1875H24.3321C21.7661 8.1875 19.6875 10.1181 19.6875 12.5C19.6875 14.8819 21.7676 16.8125 24.3306 16.8125H28.0724C28.1932 16.8125 28.2521 16.8125 28.3024 16.8096C29.0787 16.7622 29.6968 16.1886 29.7471 15.4684C29.75 15.4224 29.75 15.3664 29.75 15.2557V9.74431C29.75 9.63363 29.75 9.57756 29.7471 9.53156C29.6954 8.81138 29.0787 8.23781 28.3024 8.19037C28.2536 8.1875 28.1932 8.1875 28.0724 8.1875Z" stroke="#8EE2EF" stroke-width="1.4375"/>
<path d="M28.2622 8.1875C28.1501 5.4965 27.7907 3.84625 26.6277 2.68475C24.9444 1 22.2333 1 16.8125 1H12.5C7.07919 1 4.36806 1 2.68475 2.68475C1 4.36806 1 7.07919 1 12.5C1 17.9208 1 20.6319 2.68475 22.3152C4.36806 24 7.07919 24 12.5 24H16.8125C22.2333 24 24.9444 24 26.6277 22.3152C27.7907 21.1537 28.1515 19.5035 28.2622 16.8125" stroke="#8EE2EF" stroke-width="1.4375"/>
<path d="M23.9871 12.5H24.0021" stroke="#8EE2EF" stroke-width="1.91667" stroke-linecap="round" stroke-linejoin="round"/>
</svg>
