<svg width="23" height="23" viewBox="0 0 23 23" fill="none" xmlns="http://www.w3.org/2000/svg">
<path d="M21.1514 0H1.84863C0.828 0 0 0.828 0 1.84863V21.1514C0 22.172 0.828 23 1.84863 23H21.1514C22.172 23 23 22.172 23 21.1514V1.84863C23 0.828 22.172 0 21.1514 0ZM21.1514 21.16C8.27713 21.1571 1.84 21.1543 1.84 21.1514C1.84288 8.27713 1.84575 1.84 1.84863 1.84C14.7229 1.84288 21.16 1.84575 21.16 1.84863C21.1571 14.7229 21.1543 21.16 21.1514 21.16ZM3.40975 8.62212H6.82237V19.5989H3.40975V8.62212ZM5.1175 7.12138C6.20713 7.12138 7.0955 6.23588 7.0955 5.14337C7.0955 4.88362 7.04434 4.62641 6.94493 4.38643C6.84553 4.14645 6.69983 3.92839 6.51616 3.74472C6.33248 3.56104 6.11443 3.41534 5.87445 3.31594C5.63447 3.21654 5.37725 3.16538 5.1175 3.16538C4.85775 3.16538 4.60053 3.21654 4.36055 3.31594C4.12057 3.41534 3.90252 3.56104 3.71884 3.74472C3.53517 3.92839 3.38947 4.14645 3.29007 4.38643C3.19066 4.62641 3.1395 4.88362 3.1395 5.14337C3.13663 6.23588 4.02213 7.12138 5.1175 7.12138ZM12.3711 14.168C12.3711 12.7362 12.6442 11.3505 14.4181 11.3505C16.1661 11.3505 16.192 12.9864 16.192 14.26V19.5989H19.6017V13.5786C19.6017 10.6231 18.9635 8.349 15.5106 8.349C13.8518 8.349 12.7391 9.26038 12.282 10.1229H12.236V8.62212H8.96138V19.5989H12.3711V14.168Z" fill="#8EE2EF"/>
</svg>
